{"title":"Dil Vil Pyaar Vyaar 2014 DVD RIP Esub Punjabi GOPI SAHI PDR","uid":11689249,"size":718976410,"categoryP":"video","categoryS":"movies","magnet":"?xt=urn:btih:168cd747407c22b6dd395609da4721404a0d8cf7&amp;dn=Dil+Vil+Pyaar+Vyaar+2014+DVD+RIP+Esub+Punjabi+GOPI+SAHI+PDR&amp;tr=udp%3A%2F%2Ftracker.openbittorrent.com%3A80&amp;tr=udp%3A%2F%2Fopen.demonii.com%3A1337&amp;tr=udp%3A%2F%2Ftracker.coppersurfer.tk%3A6969&amp;tr=udp%3A%2F%2Fexodus.desync.com%3A6969","seeders":5,"leechers":3,"uploader":"jatt13","files":1,"time":1423448725,"description":"File size                      : 686 MiB\nDuration                       : 2h 25mn\nOverall bit rate               : 657 Kbps\nMovie name                     : Dil Vil Pyaar Vyaar 2014 \n\nVideo\nID                             : 1\nFormat                         : MPEG-4 Visual\nCodec ID/Hint                  : XviD\nDuration                       : 2h 25mn\nBit rate                       : 564 Kbps\nWidth                          : 640 pixels\nHeight                         : 288 pixels\nStream size                    : 589 MiB (86%)\nWriting library                : XviD 1.2.1 (UTC 2008-12-04)\nLanguage                       : Panjabi\n\nAudio\nID                             : 2\nFormat                         : MPEG Audio\nDuration                       : 2h 25mn\nBit rate                       : 80.0 Kbps\nChannel(s)                     : 2 channels\nStream size                    : 83.5 MiB (12%)\nLanguage                       : Panjabi\n\nText\nID                             : 3\nFormat                         : UTF-8\n[img]http://i.imgur.com/T6cp5eo.jpg[/img]\n[img]http://i.imgur.com/BwISUzq.jpg[/img]\n[img]http://i.imgur.com/jxj9gWX.jpg[/img]\n[img]http://i.imgur.com/hAdCcNt.jpg[/img]","torrent":{"xt":"urn:btih:168cd747407c22b6dd395609da4721404a0d8cf7","amp;dn":"Dil+Vil+Pyaar+Vyaar+2014+DVD+RIP+Esub+Punjabi+GOPI+SAHI+PDR","amp;tr":["udp%3A%2F%2Ftracker.openbittorrent.com%3A80","udp%3A%2F%2Fopen.demonii.com%3A1337","udp%3A%2F%2Ftracker.coppersurfer.tk%3A6969","udp%3A%2F%2Fexodus.desync.com%3A6969"],"infoHash":"168cd747407c22b6dd395609da4721404a0d8cf7","infoHashBuffer":{"type":"Buffer","data":[22,140,215,71,64,124,34,182,221,57,86,9,218,71,33,64,74,13,140,247]},"announce":[],"urlList":[]}}